<svg aria-roledescription="er" viewBox="0 0 647.65625 408.734375" style="max-width: 647.656px; background-color: white;" xmlns:xlink="http://www.w3.org/1999/xlink" xmlns="http://www.w3.org/2000/svg" width="100%" id="mermaid-0"><style>#mermaid-0{font-family:"trebuchet ms",verdana,arial,sans-serif;font-size:16px;fill:#000000;}#mermaid-0 .error-icon{fill:#552222;}#mermaid-0 .error-text{fill:#552222;stroke:#552222;}#mermaid-0 .edge-thickness-normal{stroke-width:2px;}#mermaid-0 .edge-thickness-thick{stroke-width:3.5px;}#mermaid-0 .edge-pattern-solid{stroke-dasharray:0;}#mermaid-0 .edge-pattern-dashed{stroke-dasharray:3;}#mermaid-0 .edge-pattern-dotted{stroke-dasharray:2;}#mermaid-0 .marker{fill:#000000;stroke:#000000;}#mermaid-0 .marker.cross{stroke:#000000;}#mermaid-0 svg{font-family:"trebuchet ms",verdana,arial,sans-serif;font-size:16px;}#mermaid-0 .entityBox{fill:#cde498;stroke:#13540c;}#mermaid-0 .attributeBoxOdd{fill:#ffffff;stroke:#13540c;}#mermaid-0 .attributeBoxEven{fill:#f2f2f2;stroke:#13540c;}#mermaid-0 .relationshipLabelBox{fill:hsl(78.1578947368, 58.4615384615%, 84.5098039216%);opacity:0.7;background-color:hsl(78.1578947368, 58.4615384615%, 84.5098039216%);}#mermaid-0 .relationshipLabelBox rect{opacity:0.5;}#mermaid-0 .relationshipLine{stroke:#000000;}#mermaid-0 .entityTitleText{text-anchor:middle;font-size:18px;fill:#000000;}#mermaid-0 :root{--mermaid-font-family:"trebuchet ms",verdana,arial,sans-serif;}</style><g/><defs><marker orient="auto" markerHeight="18" markerWidth="18" refY="9" refX="0" id="ONLY_ONE_START"><path d="M9,0 L9,18 M15,0 L15,18" fill="none" stroke="gray"/></marker></defs><defs><marker orient="auto" markerHeight="18" markerWidth="18" refY="9" refX="18" id="ONLY_ONE_END"><path d="M3,0 L3,18 M9,0 L9,18" fill="none" stroke="gray"/></marker></defs><defs><marker orient="auto" markerHeight="18" markerWidth="30" refY="9" refX="0" id="ZERO_OR_ONE_START"><circle r="6" cy="9" cx="21" fill="white" stroke="gray"/><path d="M9,0 L9,18" fill="none" stroke="gray"/></marker></defs><defs><marker orient="auto" markerHeight="18" markerWidth="30" refY="9" refX="30" id="ZERO_OR_ONE_END"><circle r="6" cy="9" cx="9" fill="white" stroke="gray"/><path d="M21,0 L21,18" fill="none" stroke="gray"/></marker></defs><defs><marker orient="auto" markerHeight="36" markerWidth="45" refY="18" refX="18" id="ONE_OR_MORE_START"><path d="M0,18 Q 18,0 36,18 Q 18,36 0,18 M42,9 L42,27" fill="none" stroke="gray"/></marker></defs><defs><marker orient="auto" markerHeight="36" markerWidth="45" refY="18" refX="27" id="ONE_OR_MORE_END"><path d="M3,9 L3,27 M9,18 Q27,0 45,18 Q27,36 9,18" fill="none" stroke="gray"/></marker></defs><defs><marker orient="auto" markerHeight="36" markerWidth="57" refY="18" refX="18" id="ZERO_OR_MORE_START"><circle r="6" cy="18" cx="48" fill="white" stroke="gray"/><path d="M0,18 Q18,0 36,18 Q18,36 0,18" fill="none" stroke="gray"/></marker></defs><defs><marker orient="auto" markerHeight="36" markerWidth="57" refY="18" refX="39" id="ZERO_OR_MORE_END"><circle r="6" cy="18" cx="9" fill="white" stroke="gray"/><path d="M21,18 Q39,0 57,18 Q39,36 21,18" fill="none" stroke="gray"/></marker></defs><path style="stroke: gray; fill: none;" marker-start="url(#ZERO_OR_MORE_START)" marker-end="url(#ZERO_OR_ONE_END)" d="M87.609375,198.458984375L87.609375,206.79231770833334C87.609375,215.12565104166666,87.609375,231.79231770833334,87.609375,248.458984375C87.609375,265.1256510416667,87.609375,281.7923177083333,87.609375,290.1256510416667L87.609375,298.458984375" class="er relationshipLine"/><g transform="translate(20,20 )" id="entity-user-1e4d4968-10c2-499f-83db-a106fe5c1e5b"><rect height="178.458984375" width="135.21875" y="0" x="0" class="er entityBox"/><text style="dominant-baseline: middle; text-anchor: middle; font-size: 12px;" transform="translate(67.609375,12)" y="0" x="0" id="text-entity-user-1e4d4968-10c2-499f-83db-a106fe5c1e5b" class="er entityLabel">user</text><rect height="22.091796875" width="53.671875" y="24" x="0" class="er attributeBoxOdd"/><text style="dominant-baseline: middle; font-size: 10.2px;" transform="translate(5,35.0458984375)" y="0" x="0" id="text-entity-user-1e4d4968-10c2-499f-83db-a106fe5c1e5b-attr-1-type" class="er entityLabel">String</text><rect height="22.091796875" width="59.984375" y="24" x="53.671875" class="er attributeBoxOdd"/><text style="dominant-baseline: middle; font-size: 10.2px;" transform="translate(58.671875,35.0458984375)" y="0" x="0" id="text-entity-user-1e4d4968-10c2-499f-83db-a106fe5c1e5b-attr-1-name" class="er entityLabel">id</text><rect height="22.091796875" width="21.5625" y="24" x="113.65625" class="er attributeBoxOdd"/><text style="dominant-baseline: middle; font-size: 10.2px;" transform="translate(118.65625,35.0458984375)" y="0" x="0" id="text-entity-user-1e4d4968-10c2-499f-83db-a106fe5c1e5b-attr-1-key" class="er entityLabel">PK</text><rect height="22.091796875" width="53.671875" y="46.091796875" x="0" class="er attributeBoxEven"/><text style="dominant-baseline: middle; font-size: 10.2px;" transform="translate(5,57.1376953125)" y="0" x="0" id="text-entity-user-1e4d4968-10c2-499f-83db-a106fe5c1e5b-attr-2-type" class="er entityLabel">String</text><rect height="22.091796875" width="59.984375" y="46.091796875" x="53.671875" class="er attributeBoxEven"/><text style="dominant-baseline: middle; font-size: 10.2px;" transform="translate(58.671875,57.1376953125)" y="0" x="0" id="text-entity-user-1e4d4968-10c2-499f-83db-a106fe5c1e5b-attr-2-name" class="er entityLabel">username</text><rect height="22.091796875" width="21.5625" y="46.091796875" x="113.65625" class="er attributeBoxEven"/><text style="dominant-baseline: middle; font-size: 10.2px;" transform="translate(118.65625,57.1376953125)" y="0" x="0" id="text-entity-user-1e4d4968-10c2-499f-83db-a106fe5c1e5b-attr-2-key" class="er entityLabel"/><rect height="22.091796875" width="53.671875" y="68.18359375" x="0" class="er attributeBoxOdd"/><text style="dominant-baseline: middle; font-size: 10.2px;" transform="translate(5,79.2294921875)" y="0" x="0" id="text-entity-user-1e4d4968-10c2-499f-83db-a106fe5c1e5b-attr-3-type" class="er entityLabel">String</text><rect height="22.091796875" width="59.984375" y="68.18359375" x="53.671875" class="er attributeBoxOdd"/><text style="dominant-baseline: middle; font-size: 10.2px;" transform="translate(58.671875,79.2294921875)" y="0" x="0" id="text-entity-user-1e4d4968-10c2-499f-83db-a106fe5c1e5b-attr-3-name" class="er entityLabel">name</text><rect height="22.091796875" width="21.5625" y="68.18359375" x="113.65625" class="er attributeBoxOdd"/><text style="dominant-baseline: middle; font-size: 10.2px;" transform="translate(118.65625,79.2294921875)" y="0" x="0" id="text-entity-user-1e4d4968-10c2-499f-83db-a106fe5c1e5b-attr-3-key" class="er entityLabel"/><rect height="22.091796875" width="53.671875" y="90.275390625" x="0" class="er attributeBoxEven"/><text style="dominant-baseline: middle; font-size: 10.2px;" transform="translate(5,101.3212890625)" y="0" x="0" id="text-entity-user-1e4d4968-10c2-499f-83db-a106fe5c1e5b-attr-4-type" class="er entityLabel">String</text><rect height="22.091796875" width="59.984375" y="90.275390625" x="53.671875" class="er attributeBoxEven"/><text style="dominant-baseline: middle; font-size: 10.2px;" transform="translate(58.671875,101.3212890625)" y="0" x="0" id="text-entity-user-1e4d4968-10c2-499f-83db-a106fe5c1e5b-attr-4-name" class="er entityLabel">password</text><rect height="22.091796875" width="21.5625" y="90.275390625" x="113.65625" class="er attributeBoxEven"/><text style="dominant-baseline: middle; font-size: 10.2px;" transform="translate(118.65625,101.3212890625)" y="0" x="0" id="text-entity-user-1e4d4968-10c2-499f-83db-a106fe5c1e5b-attr-4-key" class="er entityLabel"/><rect height="22.091796875" width="53.671875" y="112.3671875" x="0" class="er attributeBoxOdd"/><text style="dominant-baseline: middle; font-size: 10.2px;" transform="translate(5,123.4130859375)" y="0" x="0" id="text-entity-user-1e4d4968-10c2-499f-83db-a106fe5c1e5b-attr-5-type" class="er entityLabel">String</text><rect height="22.091796875" width="59.984375" y="112.3671875" x="53.671875" class="er attributeBoxOdd"/><text style="dominant-baseline: middle; font-size: 10.2px;" transform="translate(58.671875,123.4130859375)" y="0" x="0" id="text-entity-user-1e4d4968-10c2-499f-83db-a106fe5c1e5b-attr-5-name" class="er entityLabel">expoToken</text><rect height="22.091796875" width="21.5625" y="112.3671875" x="113.65625" class="er attributeBoxOdd"/><text style="dominant-baseline: middle; font-size: 10.2px;" transform="translate(118.65625,123.4130859375)" y="0" x="0" id="text-entity-user-1e4d4968-10c2-499f-83db-a106fe5c1e5b-attr-5-key" class="er entityLabel"/><rect height="22" width="53.671875" y="134.458984375" x="0" class="er attributeBoxEven"/><text style="dominant-baseline: middle; font-size: 10.2px;" transform="translate(5,145.458984375)" y="0" x="0" id="text-entity-user-1e4d4968-10c2-499f-83db-a106fe5c1e5b-attr-6-type" class="er entityLabel">Int</text><rect height="22" width="59.984375" y="134.458984375" x="53.671875" class="er attributeBoxEven"/><text style="dominant-baseline: middle; font-size: 10.2px;" transform="translate(58.671875,145.458984375)" y="0" x="0" id="text-entity-user-1e4d4968-10c2-499f-83db-a106fe5c1e5b-attr-6-name" class="er entityLabel">level</text><rect height="22" width="21.5625" y="134.458984375" x="113.65625" class="er attributeBoxEven"/><text style="dominant-baseline: middle; font-size: 10.2px;" transform="translate(118.65625,145.458984375)" y="0" x="0" id="text-entity-user-1e4d4968-10c2-499f-83db-a106fe5c1e5b-attr-6-key" class="er entityLabel"/><rect height="22" width="53.671875" y="156.458984375" x="0" class="er attributeBoxOdd"/><text style="dominant-baseline: middle; font-size: 10.2px;" transform="translate(5,167.458984375)" y="0" x="0" id="text-entity-user-1e4d4968-10c2-499f-83db-a106fe5c1e5b-attr-7-type" class="er entityLabel">DateTime</text><rect height="22" width="59.984375" y="156.458984375" x="53.671875" class="er attributeBoxOdd"/><text style="dominant-baseline: middle; font-size: 10.2px;" transform="translate(58.671875,167.458984375)" y="0" x="0" id="text-entity-user-1e4d4968-10c2-499f-83db-a106fe5c1e5b-attr-7-name" class="er entityLabel">created_at</text><rect height="22" width="21.5625" y="156.458984375" x="113.65625" class="er attributeBoxOdd"/><text style="dominant-baseline: middle; font-size: 10.2px;" transform="translate(118.65625,167.458984375)" y="0" x="0" id="text-entity-user-1e4d4968-10c2-499f-83db-a106fe5c1e5b-attr-7-key" class="er entityLabel"/></g><g transform="translate(255.21875,53.091796875 )" id="entity-notification-ff176eeb-48a4-4b29-a45d-4af4d6a7075d"><rect height="112.275390625" width="136.21875" y="0" x="0" class="er entityBox"/><text style="dominant-baseline: middle; text-anchor: middle; font-size: 12px;" transform="translate(68.109375,12)" y="0" x="0" id="text-entity-notification-ff176eeb-48a4-4b29-a45d-4af4d6a7075d" class="er entityLabel">notification</text><rect height="22.091796875" width="53.671875" y="24" x="0" class="er attributeBoxOdd"/><text style="dominant-baseline: middle; font-size: 10.2px;" transform="translate(5,35.0458984375)" y="0" x="0" id="text-entity-notification-ff176eeb-48a4-4b29-a45d-4af4d6a7075d-attr-1-type" class="er entityLabel">String</text><rect height="22.091796875" width="60.984375" y="24" x="53.671875" class="er attributeBoxOdd"/><text style="dominant-baseline: middle; font-size: 10.2px;" transform="translate(58.671875,35.0458984375)" y="0" x="0" id="text-entity-notification-ff176eeb-48a4-4b29-a45d-4af4d6a7075d-attr-1-name" class="er entityLabel">id</text><rect height="22.091796875" width="21.5625" y="24" x="114.65625" class="er attributeBoxOdd"/><text style="dominant-baseline: middle; font-size: 10.2px;" transform="translate(119.65625,35.0458984375)" y="0" x="0" id="text-entity-notification-ff176eeb-48a4-4b29-a45d-4af4d6a7075d-attr-1-key" class="er entityLabel">PK</text><rect height="22.091796875" width="53.671875" y="46.091796875" x="0" class="er attributeBoxEven"/><text style="dominant-baseline: middle; font-size: 10.2px;" transform="translate(5,57.1376953125)" y="0" x="0" id="text-entity-notification-ff176eeb-48a4-4b29-a45d-4af4d6a7075d-attr-2-type" class="er entityLabel">String</text><rect height="22.091796875" width="60.984375" y="46.091796875" x="53.671875" class="er attributeBoxEven"/><text style="dominant-baseline: middle; font-size: 10.2px;" transform="translate(58.671875,57.1376953125)" y="0" x="0" id="text-entity-notification-ff176eeb-48a4-4b29-a45d-4af4d6a7075d-attr-2-name" class="er entityLabel">title</text><rect height="22.091796875" width="21.5625" y="46.091796875" x="114.65625" class="er attributeBoxEven"/><text style="dominant-baseline: middle; font-size: 10.2px;" transform="translate(119.65625,57.1376953125)" y="0" x="0" id="text-entity-notification-ff176eeb-48a4-4b29-a45d-4af4d6a7075d-attr-2-key" class="er entityLabel"/><rect height="22.091796875" width="53.671875" y="68.18359375" x="0" class="er attributeBoxOdd"/><text style="dominant-baseline: middle; font-size: 10.2px;" transform="translate(5,79.2294921875)" y="0" x="0" id="text-entity-notification-ff176eeb-48a4-4b29-a45d-4af4d6a7075d-attr-3-type" class="er entityLabel">String</text><rect height="22.091796875" width="60.984375" y="68.18359375" x="53.671875" class="er attributeBoxOdd"/><text style="dominant-baseline: middle; font-size: 10.2px;" transform="translate(58.671875,79.2294921875)" y="0" x="0" id="text-entity-notification-ff176eeb-48a4-4b29-a45d-4af4d6a7075d-attr-3-name" class="er entityLabel">description</text><rect height="22.091796875" width="21.5625" y="68.18359375" x="114.65625" class="er attributeBoxOdd"/><text style="dominant-baseline: middle; font-size: 10.2px;" transform="translate(119.65625,79.2294921875)" y="0" x="0" id="text-entity-notification-ff176eeb-48a4-4b29-a45d-4af4d6a7075d-attr-3-key" class="er entityLabel"/><rect height="22" width="53.671875" y="90.275390625" x="0" class="er attributeBoxEven"/><text style="dominant-baseline: middle; font-size: 10.2px;" transform="translate(5,101.275390625)" y="0" x="0" id="text-entity-notification-ff176eeb-48a4-4b29-a45d-4af4d6a7075d-attr-4-type" class="er entityLabel">DateTime</text><rect height="22" width="60.984375" y="90.275390625" x="53.671875" class="er attributeBoxEven"/><text style="dominant-baseline: middle; font-size: 10.2px;" transform="translate(58.671875,101.275390625)" y="0" x="0" id="text-entity-notification-ff176eeb-48a4-4b29-a45d-4af4d6a7075d-attr-4-name" class="er entityLabel">created_at</text><rect height="22" width="21.5625" y="90.275390625" x="114.65625" class="er attributeBoxEven"/><text style="dominant-baseline: middle; font-size: 10.2px;" transform="translate(119.65625,101.275390625)" y="0" x="0" id="text-entity-notification-ff176eeb-48a4-4b29-a45d-4af4d6a7075d-attr-4-key" class="er entityLabel"/></g><g transform="translate(491.4375,53.091796875 )" id="entity-recommendation-513d37ac-23e3-40d7-8417-3014049d6893"><rect height="112.275390625" width="136.21875" y="0" x="0" class="er entityBox"/><text style="dominant-baseline: middle; text-anchor: middle; font-size: 12px;" transform="translate(68.109375,12)" y="0" x="0" id="text-entity-recommendation-513d37ac-23e3-40d7-8417-3014049d6893" class="er entityLabel">recommendation</text><rect height="22.091796875" width="53.671875" y="24" x="0" class="er attributeBoxOdd"/><text style="dominant-baseline: middle; font-size: 10.2px;" transform="translate(5,35.0458984375)" y="0" x="0" id="text-entity-recommendation-513d37ac-23e3-40d7-8417-3014049d6893-attr-1-type" class="er entityLabel">String</text><rect height="22.091796875" width="60.984375" y="24" x="53.671875" class="er attributeBoxOdd"/><text style="dominant-baseline: middle; font-size: 10.2px;" transform="translate(58.671875,35.0458984375)" y="0" x="0" id="text-entity-recommendation-513d37ac-23e3-40d7-8417-3014049d6893-attr-1-name" class="er entityLabel">id</text><rect height="22.091796875" width="21.5625" y="24" x="114.65625" class="er attributeBoxOdd"/><text style="dominant-baseline: middle; font-size: 10.2px;" transform="translate(119.65625,35.0458984375)" y="0" x="0" id="text-entity-recommendation-513d37ac-23e3-40d7-8417-3014049d6893-attr-1-key" class="er entityLabel">PK</text><rect height="22.091796875" width="53.671875" y="46.091796875" x="0" class="er attributeBoxEven"/><text style="dominant-baseline: middle; font-size: 10.2px;" transform="translate(5,57.1376953125)" y="0" x="0" id="text-entity-recommendation-513d37ac-23e3-40d7-8417-3014049d6893-attr-2-type" class="er entityLabel">String</text><rect height="22.091796875" width="60.984375" y="46.091796875" x="53.671875" class="er attributeBoxEven"/><text style="dominant-baseline: middle; font-size: 10.2px;" transform="translate(58.671875,57.1376953125)" y="0" x="0" id="text-entity-recommendation-513d37ac-23e3-40d7-8417-3014049d6893-attr-2-name" class="er entityLabel">title</text><rect height="22.091796875" width="21.5625" y="46.091796875" x="114.65625" class="er attributeBoxEven"/><text style="dominant-baseline: middle; font-size: 10.2px;" transform="translate(119.65625,57.1376953125)" y="0" x="0" id="text-entity-recommendation-513d37ac-23e3-40d7-8417-3014049d6893-attr-2-key" class="er entityLabel"/><rect height="22.091796875" width="53.671875" y="68.18359375" x="0" class="er attributeBoxOdd"/><text style="dominant-baseline: middle; font-size: 10.2px;" transform="translate(5,79.2294921875)" y="0" x="0" id="text-entity-recommendation-513d37ac-23e3-40d7-8417-3014049d6893-attr-3-type" class="er entityLabel">String</text><rect height="22.091796875" width="60.984375" y="68.18359375" x="53.671875" class="er attributeBoxOdd"/><text style="dominant-baseline: middle; font-size: 10.2px;" transform="translate(58.671875,79.2294921875)" y="0" x="0" id="text-entity-recommendation-513d37ac-23e3-40d7-8417-3014049d6893-attr-3-name" class="er entityLabel">description</text><rect height="22.091796875" width="21.5625" y="68.18359375" x="114.65625" class="er attributeBoxOdd"/><text style="dominant-baseline: middle; font-size: 10.2px;" transform="translate(119.65625,79.2294921875)" y="0" x="0" id="text-entity-recommendation-513d37ac-23e3-40d7-8417-3014049d6893-attr-3-key" class="er entityLabel"/><rect height="22" width="53.671875" y="90.275390625" x="0" class="er attributeBoxEven"/><text style="dominant-baseline: middle; font-size: 10.2px;" transform="translate(5,101.275390625)" y="0" x="0" id="text-entity-recommendation-513d37ac-23e3-40d7-8417-3014049d6893-attr-4-type" class="er entityLabel">DateTime</text><rect height="22" width="60.984375" y="90.275390625" x="53.671875" class="er attributeBoxEven"/><text style="dominant-baseline: middle; font-size: 10.2px;" transform="translate(58.671875,101.275390625)" y="0" x="0" id="text-entity-recommendation-513d37ac-23e3-40d7-8417-3014049d6893-attr-4-name" class="er entityLabel">created_at</text><rect height="22" width="21.5625" y="90.275390625" x="114.65625" class="er attributeBoxEven"/><text style="dominant-baseline: middle; font-size: 10.2px;" transform="translate(119.65625,101.275390625)" y="0" x="0" id="text-entity-recommendation-513d37ac-23e3-40d7-8417-3014049d6893-attr-4-key" class="er entityLabel"/></g><g transform="translate(34.953125,298.458984375 )" id="entity-refreshToken-8e89a528-6c70-48d7-a2a4-4d5f9ce100ea"><rect height="90.27539157867432" width="105.3125" y="0" x="0" class="er entityBox"/><text style="dominant-baseline: middle; text-anchor: middle; font-size: 12px;" transform="translate(52.65625,12)" y="0" x="0" id="text-entity-refreshToken-8e89a528-6c70-48d7-a2a4-4d5f9ce100ea" class="er entityLabel">refreshToken</text><rect height="22.091796875" width="36.53125" y="24" x="0" class="er attributeBoxOdd"/><text style="dominant-baseline: middle; font-size: 10.2px;" transform="translate(5,35.0458984375)" y="0" x="0" id="text-entity-refreshToken-8e89a528-6c70-48d7-a2a4-4d5f9ce100ea-attr-1-type" class="er entityLabel">String</text><rect height="22.091796875" width="47.21875" y="24" x="36.53125" class="er attributeBoxOdd"/><text style="dominant-baseline: middle; font-size: 10.2px;" transform="translate(41.53125,35.0458984375)" y="0" x="0" id="text-entity-refreshToken-8e89a528-6c70-48d7-a2a4-4d5f9ce100ea-attr-1-name" class="er entityLabel">id</text><rect height="22.091796875" width="21.5625" y="24" x="83.75" class="er attributeBoxOdd"/><text style="dominant-baseline: middle; font-size: 10.2px;" transform="translate(88.75,35.0458984375)" y="0" x="0" id="text-entity-refreshToken-8e89a528-6c70-48d7-a2a4-4d5f9ce100ea-attr-1-key" class="er entityLabel">PK</text><rect height="22.091797828674316" width="36.53125" y="46.091796875" x="0" class="er attributeBoxEven"/><text style="dominant-baseline: middle; font-size: 10.2px;" transform="translate(5,57.13769578933716)" y="0" x="0" id="text-entity-refreshToken-8e89a528-6c70-48d7-a2a4-4d5f9ce100ea-attr-2-type" class="er entityLabel">Int</text><rect height="22.091797828674316" width="47.21875" y="46.091796875" x="36.53125" class="er attributeBoxEven"/><text style="dominant-baseline: middle; font-size: 10.2px;" transform="translate(41.53125,57.13769578933716)" y="0" x="0" id="text-entity-refreshToken-8e89a528-6c70-48d7-a2a4-4d5f9ce100ea-attr-2-name" class="er entityLabel">expireIn</text><rect height="22.091797828674316" width="21.5625" y="46.091796875" x="83.75" class="er attributeBoxEven"/><text style="dominant-baseline: middle; font-size: 10.2px;" transform="translate(88.75,57.13769578933716)" y="0" x="0" id="text-entity-refreshToken-8e89a528-6c70-48d7-a2a4-4d5f9ce100ea-attr-2-key" class="er entityLabel"/><rect height="22.091796875" width="36.53125" y="68.18359470367432" x="0" class="er attributeBoxOdd"/><text style="dominant-baseline: middle; font-size: 10.2px;" transform="translate(5,79.22949314117432)" y="0" x="0" id="text-entity-refreshToken-8e89a528-6c70-48d7-a2a4-4d5f9ce100ea-attr-3-type" class="er entityLabel">String</text><rect height="22.091796875" width="47.21875" y="68.18359470367432" x="36.53125" class="er attributeBoxOdd"/><text style="dominant-baseline: middle; font-size: 10.2px;" transform="translate(41.53125,79.22949314117432)" y="0" x="0" id="text-entity-refreshToken-8e89a528-6c70-48d7-a2a4-4d5f9ce100ea-attr-3-name" class="er entityLabel">userId</text><rect height="22.091796875" width="21.5625" y="68.18359470367432" x="83.75" class="er attributeBoxOdd"/><text style="dominant-baseline: middle; font-size: 10.2px;" transform="translate(88.75,79.22949314117432)" y="0" x="0" id="text-entity-refreshToken-8e89a528-6c70-48d7-a2a4-4d5f9ce100ea-attr-3-key" class="er entityLabel"/></g><rect height="14" width="74.921875" y="241.458984375" x="50.1484375" class="er relationshipLabelBox"/><text style="text-anchor: middle; dominant-baseline: middle; font-size: 12px;" y="248.458984375" x="87.609375" id="rel1" class="er relationshipLabel">refresh_token</text></svg>